<svg xmlns="http://www.w3.org/2000/svg" xmlns:xlink="http://www.w3.org/1999/xlink" width="18" height="161" viewBox="0 0 18 161"><svg width="17" height="13" viewBox="0 0 17 13" id="btn-video-icon" y="0"><title>btn-video-icon</title><defs><path d="M0 .998C0 .447.446 0 .998 0h7.004C8.553 0 9 .446 9 .998v7.004C9 8.553 8.554 9 8.002 9H.998A.997.997 0 0 1 0 8.002V.998zM13 2v5l-2-1.005v-2.87L13 2zm-11.87.09s-.627.958.646 2.77c1.273 1.813 2.81 2.591 2.81 2.591s1.62.986 2.685.252c0 0 .691.033.703-1.432-.172-.923-.488-1.131-1.302-1.582-.701-.152-1.394-.059-1.394 1.153C3.543 4.63 3.116 3.797 3.116 3.797s1.202.307 1.224-1.03c-.31-1.058-.883-1.274-1.358-1.66C1.61.82 1.131 2.09 1.131 2.09z" id="a"></path><mask id="b" x="-2" y="-2" width="17" height="13"><path fill="#fff" d="M-2-2h17v13H-2z"></path><use xlink:href="#a"></use></mask></defs><use mask="url(#b)" xlink:href="#a" transform="translate(2 2)" stroke="#FFF" stroke-width="4" fill="none" fill-rule="evenodd" stroke-linecap="round" stroke-linejoin="round"></use></svg><svg width="18" height="15" viewBox="0 0 18 15" id="camera-disabled" y="13"><title>camera-disabled</title><path d="M11.496 2H4a2 2 0 0 0-2 2v7c0 .153.017.303.05.446L.706 12.79a1.007 1.007 0 0 0 .001 1.428 1.009 1.009 0 0 0 1.427.001l12.01-12.01a1.007 1.007 0 0 0-.002-1.427 1.009 1.009 0 0 0-1.427-.001L11.496 2zM4 9.496V4h5.496L4 9.496zM15.18 3.17C16.43 2.6 18 3.482 18 5v5c0 1.735-2.059 2.647-3.344 1.481L14 10.886V11a2 2 0 0 1-2 2H5.353l2-2H12V6.353l3.144-3.143a1.03 1.03 0 0 0 .037-.04zM16 5l-2 1.89v1.295L16 10V5z" fill="#FFF" fill-rule="evenodd" opacity=".4"></path></svg><svg width="18" height="15" viewBox="0 0 18 15" id="camera-disabled-hover" y="28"><title>camera-disabled-hover</title><path d="M11.496 2H4a2 2 0 0 0-2 2v7c0 .153.017.303.05.446L.706 12.79a1.007 1.007 0 0 0 .001 1.428 1.009 1.009 0 0 0 1.427.001l12.01-12.01a1.007 1.007 0 0 0-.002-1.427 1.009 1.009 0 0 0-1.427-.001L11.496 2zM4 9.496V4h5.496L4 9.496zM15.18 3.17C16.43 2.6 18 3.482 18 5v5c0 1.735-2.059 2.647-3.344 1.481L14 10.886V11a2 2 0 0 1-2 2H5.353l2-2H12V6.353l3.144-3.143a1.03 1.03 0 0 0 .037-.04zM16 5l-2 1.89v1.295L16 10V5z" fill="#FFF" fill-rule="evenodd"></path></svg><svg width="17" height="15" viewBox="0 0 17 15" id="chat-bubble" y="43"><title>chat-bubble</title><defs><path d="M.995 7.761c-.015-2.282 0-5.77 0-5.77A2.004 2.004 0 0 1 2.991 0h7.016C11.108 0 12 .89 12 2.007v4.93a2.03 2.03 0 0 1-2.009 2.03l-5.271.055S2.513 11.192 0 11c1.151-1.618.818-1.694.995-3.239zM3 3c0-.552.438-1 1.003-1h4.994A.999.999 0 0 1 10 3c0 .552-.438 1-1.003 1H4.003A.999.999 0 0 1 3 3zm0 3c0-.552.444-1 1-1h3c.552 0 1 .444 1 1 0 .552-.444 1-1 1H4c-.552 0-1-.444-1-1z" id="a"></path><mask id="b" x="-2" y="-2" width="16" height="15.012"><path fill="#fff" d="M-2-2h16v15.012H-2z"></path><use xlink:href="#a"></use></mask></defs><use mask="url(#b)" xlink:href="#a" transform="translate(2.75 2)" stroke="#FFF" stroke-width="4" fill="none" fill-rule="evenodd" stroke-linecap="round" opacity=".4" stroke-linejoin="round"></use></svg><svg width="17" height="15" viewBox="0 0 17 15" id="chat-bubble-hover" y="58"><title>chat-bubble-hover</title><defs><path d="M.995 7.761c-.015-2.282 0-5.77 0-5.77A2.004 2.004 0 0 1 2.991 0h7.016C11.108 0 12 .89 12 2.007v4.93a2.03 2.03 0 0 1-2.009 2.03l-5.271.055S2.513 11.192 0 11c1.151-1.618.818-1.694.995-3.239zM3 3c0-.552.438-1 1.003-1h4.994A.999.999 0 0 1 10 3c0 .552-.438 1-1.003 1H4.003A.999.999 0 0 1 3 3zm0 3c0-.552.444-1 1-1h3c.552 0 1 .444 1 1 0 .552-.444 1-1 1H4c-.552 0-1-.444-1-1z" id="a"></path><mask id="b" x="-2" y="-2" width="16" height="15.012"><path fill="#fff" d="M-2-2h16v15.012H-2z"></path><use xlink:href="#a"></use></mask></defs><use mask="url(#b)" xlink:href="#a" transform="translate(2.75 2)" stroke="#FFF" stroke-width="4" fill="none" fill-rule="evenodd" stroke-linecap="round" stroke-linejoin="round"></use></svg><svg width="12" height="12" viewBox="0 0 12 12" id="fullscreen" y="73"><title>fullscreen</title><path d="M6.928 6.767l-.362.384s-.021.022-.06.056L3.91 9.922s1.009.085 1.158.085c.15 0 .88-.085.88 1.007 0 1.091-1.761.946-1.761.946s-1.478.072-2.7.023C.345 11.97.271 10.83.271 10.83S.089 7.893.003 7.636c-.056-.62.692-1.659 1.342-1.659.65 0 .93.74.93.74L2.173 8.31 4.83 5.49l.014-.017.23-.24.36-.384s.022-.022.06-.056L8.09 2.078s-1.009-.085-1.158-.085c-.15 0-.88.085-.88-1.007C6.052-.105 7.813.04 7.813.04s1.478-.072 2.7-.023c1.141.013 1.215 1.153 1.215 1.153s.183 2.937.269 3.194c.056.62-.692 1.659-1.342 1.659-.65 0-.93-.74-.93-.74l.102-1.593L7.17 6.51l-.014.017-.23.24z" fill="#FFF" fill-rule="evenodd" opacity=".4"></path></svg><svg width="12" height="12" viewBox="0 0 12 12" id="fullscreen-hover" y="85"><title>fullscreen-hover</title><path d="M6.928 6.767l-.362.384s-.021.022-.06.056L3.91 9.922s1.009.085 1.158.085c.15 0 .88-.085.88 1.007 0 1.091-1.761.946-1.761.946s-1.478.072-2.7.023C.345 11.97.271 10.83.271 10.83S.089 7.893.003 7.636c-.056-.62.692-1.659 1.342-1.659.65 0 .93.74.93.74L2.173 8.31 4.83 5.49l.014-.017.23-.24.36-.384s.022-.022.06-.056L8.09 2.078s-1.009-.085-1.158-.085c-.15 0-.88.085-.88-1.007C6.052-.105 7.813.04 7.813.04s1.478-.072 2.7-.023c1.141.013 1.215 1.153 1.215 1.153s.183 2.937.269 3.194c.056.62-.692 1.659-1.342 1.659-.65 0-.93-.74-.93-.74l.102-1.593L7.17 6.51l-.014.017-.23.24z" fill="#FFF" fill-rule="evenodd"></path></svg><svg width="16" height="6" viewBox="0 0 16 6" id="hang-call" y="97"><title>hang-call</title><path d="M3 6a1 1 0 0 0 1-1.001v-1A1 1 0 0 1 5 3h6a1 1 0 0 1 1 .999v1A1 1 0 0 0 13 6h2a1 1 0 0 0 1-1V2.499c0-.276-.194-.613-.44-.74C13.402.638 10.553-.001 8 0 5.448-.001 2.598.638.439 1.76.194 1.887 0 2.224 0 2.501V5a1 1 0 0 0 1 1h2z" fill="#FFF" fill-rule="evenodd"></path></svg><svg width="14" height="15" viewBox="0 0 14 15" id="mute-disabled" y="103"><title>mute-disabled</title><path d="M4.805 7.803c-.2-.484-.3-1.049-.3-1.663v-.874c0-.483-.52-.874-1.006-.874s-.986.391-.986.874v.874c0 1.192.324 2.228.915 3.04L.29 12.318a1.001 1.001 0 0 0 1.414 1.414L13.735 1.703A1.001 1.001 0 0 0 12.32.289L9.513 3.096V2.008a1.994 1.994 0 0 0-2-1.998c-1.113 0-2 .895-2 1.998v4.004c0 .317.072.616.202.881l-.91.91zm.622 4.207h1.118v-.995a5.997 5.997 0 0 1-.104-.019l1.512-1.512c1.44-.173 2.383-1.204 2.62-2.62l1.88-1.88c.038.089.06.184.06.282v.874c0 2.598-1.494 4.459-3.985 4.875v.995h1.987c.551 0 .998.444.998 1 0 .552-.454 1-.998 1H4.51a.993.993 0 0 1-.747-.336l1.664-1.664z" fill="#FFF" fill-rule="evenodd" opacity=".4"></path></svg><svg width="14" height="15" viewBox="0 0 14 15" id="mute-disabled-hover" y="118"><title>mute-disabled-hover</title><path d="M4.805 7.803c-.2-.484-.3-1.049-.3-1.663v-.874c0-.483-.52-.874-1.006-.874s-.986.391-.986.874v.874c0 1.192.324 2.228.915 3.04L.29 12.318a1.001 1.001 0 0 0 1.414 1.414L13.735 1.703A1.001 1.001 0 0 0 12.32.289L9.513 3.096V2.008a1.994 1.994 0 0 0-2-1.998c-1.113 0-2 .895-2 1.998v4.004c0 .317.072.616.202.881l-.91.91zm.622 4.207h1.118v-.995a5.997 5.997 0 0 1-.104-.019l1.512-1.512c1.44-.173 2.383-1.204 2.62-2.62l1.88-1.88c.038.089.06.184.06.282v.874c0 2.598-1.494 4.459-3.985 4.875v.995h1.987c.551 0 .998.444.998 1 0 .552-.454 1-.998 1H4.51a.993.993 0 0 1-.747-.336l1.664-1.664z" fill="#FFF" fill-rule="evenodd"></path></svg><svg width="14" height="14" viewBox="0 0 14 14" id="screenshare" y="133"><title>screenshare</title><path d="M12.023 8.983L11 9l-.014-4.984c0-.48-.53-.988-1.011-.988H5V1.985h7.023v6.998zM9 12.024H2.008V7H9v5.024zM1.985 4.558c0-.242.287-.554.529-.554h.968c.241 0 .54.312.54.554v.875c0 .241-.299.575-.54.575h-.968c-.242 0-.529-.334-.529-.575v-.875zM4.05 0c-.48 0-1.03.51-1.03.99v2.018H1.03C.55 3.008 0 3.529 0 4.01v9.005c0 .482.55.984 1.03.984h8.957c.48 0 1.016-.524 1.016-1.005V10.97h2.02c.48 0 .977-.49.977-.971V.99c0-.48-.496-.99-.978-.99H4.05z" fill="#FFF" fill-rule="evenodd" opacity=".4"></path></svg><svg width="14" height="14" viewBox="0 0 14 14" id="screenshare-hover" y="147"><title>screenshare-hover</title><path d="M12.023 8.983L11 9l-.014-4.984c0-.48-.53-.988-1.011-.988H5V1.985h7.023v6.998zM9 12.024H2.008V7H9v5.024zM1.985 4.558c0-.242.287-.554.529-.554h.968c.241 0 .54.312.54.554v.875c0 .241-.299.575-.54.575h-.968c-.242 0-.529-.334-.529-.575v-.875zM4.05 0c-.48 0-1.03.51-1.03.99v2.018H1.03C.55 3.008 0 3.529 0 4.01v9.005c0 .482.55.984 1.03.984h8.957c.48 0 1.016-.524 1.016-1.005V10.97h2.02c.48 0 .977-.49.977-.971V.99c0-.48-.496-.99-.978-.99H4.05z" fill="#FFF" fill-rule="evenodd"></path></svg></svg>