<?xml version="1.0" encoding="UTF-8"?>
<svg width="16px" height="15px" viewBox="0 0 16 15" version="1.1" xmlns="http://www.w3.org/2000/svg" xmlns:xlink="http://www.w3.org/1999/xlink">
    <!-- Generator: Sketch 42 (36781) - http://www.bohemiancoding.com/sketch -->
    <title>Combined-Shape</title>
    <desc>Created with Sketch.</desc>
    <defs></defs>
    <g id="Page-1" stroke="none" stroke-width="1" fill="none" fill-rule="evenodd">
        <g id="Artboard-2" transform="translate(-21.000000, -22.000000)" fill-rule="nonzero" fill="#FFFFFF">
            <g id="chat-bubble-hover" transform="translate(21.000000, 22.000000)">
                <g id="Page-1">
                    <g id="Artboard">
                        <path d="M2.9972851,9.7609577 C2.8208197,11.3062098 3.1537351,11.3818637 2.0026979,12.9999998 C4.5156654,13.1917208 6.7225884,11.0217468 6.7225884,11.0217468 L11.9941043,10.9661357 C13.1100134,10.9543635 14.0026977,10.0461935 14.0026977,8.9375257 L14.0026979,4.0074205 C14.0026979,2.8903778 13.1108415,2 12.0106809,2 L4.9947149,2 C3.902874,2 3.0000796,2.8913915 2.9968499,3.9909787 C2.9968499,3.9909787 2.9828902,7.4790859 2.9972851,9.7609577 Z M0.9910881,7.8446756 C0.9901545,6.9200384 0.9913138,5.9297417 0.9938178,4.956187 C0.99496,4.51213 0.9961026,4.1736947 0.9968585,3.9851042 C1.0033219,1.7845914 2.7992369,-1.77635684e-15 4.9947149,-1.77635684e-15 L12.0106809,-1.77635684e-15 C14.220452,-1.77635684e-15 16.0026979,1.7908516 16.0026979,4.0074206 L16.0026977,8.9375258 C16.0026977,11.1440949 14.225832,12.9427037 12.0152019,12.9660244 L7.4750695,13.0139199 C7.1904059,13.2378004 6.8525688,13.4779201 6.4662798,13.7171691 C5.0255702,14.6094762 3.4778783,15.1183574 1.8505547,14.9942045 C0.2989306,14.875827 -0.5290452,13.1087545 0.3729598,11.8407096 C0.7815227,11.266349 0.8855526,11.0618533 0.9049163,10.9576573 C0.9139949,10.9088057 0.920657,10.8297286 0.9307086,10.6146038 C0.9516373,10.1666838 0.964078,9.9602013 0.9966167,9.6565028 C0.9935635,9.1299426 0.9917708,8.5207876 0.9910881,7.8446756 Z M5.0026979,5 C5.0026979,5.5561352 5.4517246,6 6.0056272,6 L10.9997685,6 C11.5648165,6 12.0026979,5.5522847 12.0026979,5 C12.0026979,4.4438648 11.5536711,4 10.9997685,4 L6.0056272,4 C5.4405792,4 5.0026979,4.4477153 5.0026979,5 Z M5.0026979,8 C5.0026979,8.5561352 5.4503269,9 6.0025054,9 L9.0028904,9 C9.5589812,9 10.0026979,8.5522847 10.0026979,8 C10.0026979,7.4438648 9.5550688,7 9.0028904,7 L6.0025054,7 C5.4464145,7 5.0026979,7.4477153 5.0026979,8 Z" id="Combined-Shape"></path>
                    </g>
                </g>
            </g>
        </g>
    </g>
</svg>