<?xml version="1.0" encoding="UTF-8"?>
<svg width="17px" height="15px" viewBox="0 0 17 15" version="1.1" xmlns="http://www.w3.org/2000/svg" xmlns:xlink="http://www.w3.org/1999/xlink">
    <!-- Generator: Sketch 42 (36781) - http://www.bohemiancoding.com/sketch -->
    <title>chat</title>
    <desc>Created with Sketch.</desc>
    <defs></defs>
    <g id="Page-1" stroke="none" stroke-width="1" fill="none" fill-rule="evenodd" opacity="0.4">
        <g id="Artboard-2" transform="translate(-5.000000, -4.000000)" fill-rule="nonzero" fill="#FFFFFF">
            <g id="chat" transform="translate(5.000000, 4.000000)">
                <path d="M3.74458725,9.76095772 C3.5681218,11.3062098 3.90103726,11.3818637 2.75,12.9999998 C5.26296757,13.1917208 7.46989054,11.0217468 7.46989054,11.0217468 L12.7414064,10.9661357 C13.8573155,10.9543635 14.7499998,10.0461935 14.7499999,8.93752574 L14.75,4.00742055 C14.75,2.89037778 13.8581436,2 12.757983,2 L5.74201701,2 C4.65017616,2 3.74738176,2.89139152 3.74415201,3.99097869 C3.74415201,3.99097869 3.7301923,7.47908587 3.74458725,9.76095772 Z M1.73839024,7.84467561 C1.7374566,6.92003841 1.73861595,5.92974166 1.74111996,4.95618696 C1.74226208,4.51212996 1.74340475,4.17369472 1.74416064,3.98510425 C1.75062407,1.78459138 3.54653901,2.04503081e-13 5.74201701,1.59205982e-13 L12.757983,1.42108547e-14 C14.9677541,-3.13082893e-14 16.75,1.79085165 16.75,4.0074206 L16.7499999,8.93752579 C16.7499998,11.1440949 14.9731342,12.9427037 12.762504,12.9660244 L8.22237165,13.0139199 C7.93770807,13.2378004 7.5998709,13.4779201 7.21358197,13.7171691 C5.77287231,14.6094762 4.2251804,15.1183574 2.59785683,14.9942045 C1.04623272,14.875827 0.218256913,13.1087545 1.12026189,11.8407096 C1.52882486,11.266349 1.6328547,11.0618533 1.65221847,10.9576573 C1.66129706,10.9088057 1.66795917,10.8297286 1.67801073,10.6146038 C1.69893947,10.1666838 1.7113801,9.96020133 1.74391878,9.65650276 C1.74086564,9.12994258 1.73907293,8.52078763 1.73839024,7.84467561 Z M5.74999999,5 C5.74999999,5.55613518 6.19902674,6 6.75292932,6 L11.7470707,6 C12.3121186,6 12.75,5.55228475 12.75,5 C12.75,4.44386482 12.3009732,4 11.7470707,4 L6.75292932,4 C6.18788134,4 5.74999999,4.44771525 5.74999999,5 Z M5.74999999,8 C5.74999999,8.55613518 6.19762905,9 6.74980748,9 L9.7501925,9 C10.3062833,9 10.75,8.55228475 10.75,8 C10.75,7.44386482 10.3023709,7 9.7501925,7 L6.74980748,7 C6.19371663,7 5.74999999,7.44771525 5.74999999,8 Z" id="Combined-Shape"></path>
            </g>
        </g>
    </g>
</svg>