<?xml version="1.0" encoding="UTF-8"?>
<svg width="12px" height="12px" viewBox="0 0 12 12" version="1.1" xmlns="http://www.w3.org/2000/svg" xmlns:xlink="http://www.w3.org/1999/xlink">
    <!-- Generator: Sketch 41.2 (35397) - http://www.bohemiancoding.com/sketch -->
    <title>fullscreen-hover</title>
    <desc>Created with Sketch.</desc>
    <defs></defs>
    <g id="Final-flow" stroke="none" stroke-width="1" fill="none" fill-rule="evenodd">
        <g id="c-0-1" transform="translate(-1135.000000, -401.000000)" fill="#FFFFFF">
            <g transform="translate(870.000000, 65.000000)" id="Intital-chat">
                <g>
                    <g id="Group-8" transform="translate(0.000000, 59.000000)">
                        <g id="Call-controls" transform="translate(83.000000, 265.000000)">
                            <g id="call-actions">
                                <g id="Group-5" transform="translate(21.000000, 10.000000)">
                                    <g id="chat-copy" transform="translate(161.000000, 2.000000)">
                                        <g id="Group-7">
                                            <path d="M6.927749,6.76690881 L6.56626648,7.15052458 C6.56626648,7.15052458 6.545022,7.17263269 6.50630687,7.20741674 L3.9096026,9.92159441 C3.9096026,9.92159441 4.91902933,10.0066945 5.06839764,10.0066945 C5.21776594,10.0066945 5.94754933,9.92206085 5.94754933,11.0135175 C5.94754933,12.1049741 4.1865872,11.9596624 4.1865872,11.9596624 C4.1865872,11.9596624 2.70908604,12.031763 1.48607263,11.9831748 C0.345956785,11.9702466 0.27158066,10.8300623 0.27158066,10.8300623 C0.27158066,10.8300623 0.0892193986,7.89325827 0.00298127085,7.63604027 C-0.0531928161,7.01647208 0.695157025,5.9774417 1.34503433,5.9774417 C1.99491164,5.9774417 2.27455495,6.71634883 2.27455495,6.71634883 L2.17311434,8.3097394 L4.82945464,5.49075375 C4.83811615,5.47888873 4.84303613,5.47267561 4.84303613,5.47267561 L5.072251,5.23309119 L5.43373352,4.84947542 C5.43373352,4.84947542 5.454978,4.82736731 5.49369313,4.79258326 L8.0903974,2.07840559 C8.0903974,2.07840559 7.08097067,1.99330554 6.93160236,1.99330554 C6.78223406,1.99330554 6.05245067,2.07793915 6.05245067,0.986482524 C6.05245067,-0.104974101 7.8134128,0.0403376417 7.8134128,0.0403376417 C7.8134128,0.0403376417 9.29091396,-0.031762981 10.5139274,0.0168252248 C11.6540432,0.0297534124 11.7284193,1.16993774 11.7284193,1.16993774 C11.7284193,1.16993774 11.9107806,4.10674173 11.9970187,4.36395973 C12.0531928,4.98352792 11.304843,6.0225583 10.6549657,6.0225583 C10.0050884,6.0225583 9.72544505,5.28365117 9.72544505,5.28365117 L9.82688566,3.6902606 L7.17054536,6.50924625 C7.16188385,6.52111127 7.15696387,6.52732439 7.15696387,6.52732439 L6.927749,6.76690881 Z" id="fullscreen-hover"></path>
                                        </g>
                                    </g>
                                </g>
                            </g>
                        </g>
                    </g>
                </g>
            </g>
        </g>
    </g>
</svg>