<?xml version="1.0" encoding="UTF-8"?>
<svg width="14px" height="15px" viewBox="0 0 14 15" version="1.1" xmlns="http://www.w3.org/2000/svg" xmlns:xlink="http://www.w3.org/1999/xlink">
    <!-- Generator: Sketch 41.2 (35397) - http://www.bohemiancoding.com/sketch -->
    <title>mute-disabled-hover</title>
    <desc>Created with Sketch.</desc>
    <defs></defs>
    <g id="Final-flow" stroke="none" stroke-width="1" fill="none" fill-rule="evenodd">
        <g id="c-0-1" transform="translate(-974.000000, -399.000000)" fill="#FFFFFF">
            <g transform="translate(870.000000, 65.000000)" id="Intital-chat">
                <g>
                    <g id="Group-8" transform="translate(0.000000, 59.000000)">
                        <g id="Call-controls" transform="translate(83.000000, 265.000000)">
                            <g id="call-actions">
                                <g id="Group-5" transform="translate(21.000000, 10.000000)">
                                    <g id="disable-audio">
                                        <g id="Audio">
                                            <path d="M4.80549246,7.80282521 C4.60483935,7.31867027 4.50550611,6.75429768 4.50550611,6.14021583 L4.50550611,5.26626742 C4.50550611,4.78297395 3.98443263,4.39231901 3.49890404,4.39231901 C3.01337544,4.39231901 2.5125124,4.78297395 2.5125124,5.26626742 L2.5125124,6.14021583 C2.5125124,7.33150654 2.83665474,8.36762807 3.42778477,9.1805329 L0.291300631,12.317017 C-0.0971816747,12.7054993 -0.0982489815,13.3342863 0.294997974,13.7275333 C0.685522266,14.1180575 1.32095716,14.1157876 1.70551419,13.7312306 L13.7337242,1.70302063 C14.1222065,1.31453833 14.1232738,0.68575137 13.7300268,0.292504415 C13.3395025,-0.0980198768 12.7040676,-0.0957499617 12.3195106,0.288807072 L9.5125124,3.09580527 L9.5125124,2.00812019 C9.5125124,0.896725188 8.61708189,0.0100188362 7.5125124,0.0100188362 C6.40024204,0.0100188362 5.5125124,0.904599284 5.5125124,2.00812019 L5.5125124,6.01191748 C5.5125124,6.32904353 5.58541765,6.6278756 5.7152841,6.89303357 L4.80549246,7.80282521 Z M5.42672596,12.0100188 L6.54529011,12.0100188 L6.54529004,11.014585 C6.51020349,11.0087252 6.47530521,11.0025789 6.44059689,10.9961479 L7.95255855,9.48418625 C9.39377664,9.31081022 10.3361299,8.28026681 10.5726194,6.86412543 L12.4524145,4.98433033 C12.4909181,5.072755 12.5125124,5.16757984 12.5125124,5.26626742 L12.5125124,6.14021583 C12.5125124,8.73846445 11.0190981,10.5985856 8.52823979,11.014585 L8.52823985,12.0100188 L10.5154823,12.0100188 C11.0661268,12.0100188 11.5125124,12.4538837 11.5125124,13.0100188 C11.5125124,13.5623036 11.0594761,14.0100188 10.5154823,14.0100188 L4.50954253,14.0100188 C4.21225252,14.0100188 3.94535255,13.8806384 3.76268371,13.6740611 L5.42672596,12.0100188 Z" id="mute-disabled-hover"></path>
                                        </g>
                                    </g>
                                </g>
                            </g>
                        </g>
                    </g>
                </g>
            </g>
        </g>
    </g>
</svg>