<?xml version="1.0" encoding="UTF-8"?>
<svg width="14px" height="14px" viewBox="0 0 14 14" version="1.1" xmlns="http://www.w3.org/2000/svg" xmlns:xlink="http://www.w3.org/1999/xlink">
    <!-- Generator: Sketch 41.2 (35397) - http://www.bohemiancoding.com/sketch -->
    <title>screenshare</title>
    <desc>Created with Sketch.</desc>
    <defs></defs>
    <g id="Final-flow" stroke="none" stroke-width="1" fill="none" fill-rule="evenodd" opacity="0.400000006">
        <g id="0-0" transform="translate(-1053.000000, -570.000000)" fill="#FFFFFF">
            <g transform="translate(870.000000, 235.000000)" id="Intital-chat">
                <g>
                    <g id="Group-8" transform="translate(0.000000, 59.000000)">
                        <g id="Call-controls" transform="translate(83.000000, 265.000000)">
                            <g id="call-actions">
                                <g id="Group-5" transform="translate(21.000000, 10.000000)">
                                    <g id="icon-screen-share" transform="translate(79.000000, 1.000000)">
                                        <path d="M12.0232544,8.9833984 L11,9 L10.9863892,4.0164795 C10.9863892,3.5352295 10.4557983,3.027832 9.9745483,3.027832 L5,3.027832 L5,1.98468018 L12.0232544,1.98468018 L12.0232544,8.9833984 L12.0232544,8.9833984 Z M9,12.024292 L2.0076294,12.024292 L2.0076294,7 L9,7 L9,12.024292 L9,12.024292 Z M1.9854126,4.5576782 C1.9854126,4.3161782 2.2722329,4.0038452 2.5137329,4.0038452 L3.4816284,4.0038452 C3.7231284,4.0038452 4.0212402,4.3161782 4.0212402,4.5576782 L4.0212402,5.4326782 C4.0212402,5.6741782 3.7231284,6.0080566 3.4816284,6.0080566 L2.5137329,6.0080566 C2.2722329,6.0080566 1.9854126,5.6741782 1.9854126,5.4326782 L1.9854126,4.5576782 L1.9854126,4.5576782 Z M4.0504761,0 C3.5692261,0 3.0193481,0.5091675 3.0193481,0.9904175 L3.0193481,3.0079346 L1.03051758,3.0079346 C0.54926758,3.0079346 0,3.5293701 0,4.0106201 L0,13.0163574 C0,13.4976074 0.54926758,14 1.03051758,14 L9.9866333,14 C10.4678833,14 11.0029907,13.4758789 11.0029907,12.9946289 L11.0029907,10.9706421 L13.0223389,10.9706421 C13.5035889,10.9706421 14,10.48125 14,10 L14,0.9904175 C14,0.5091675 13.5035889,0 13.0223389,0 L4.0504761,0 L4.0504761,0 Z" id="screenshare"></path>
                                    </g>
                                </g>
                            </g>
                        </g>
                    </g>
                </g>
            </g>
        </g>
    </g>
</svg>